<?xml version="1.0" standalone="no"?>
<!DOCTYPE svg PUBLIC "-//W3C//DTD SVG 20010904//EN"
 "http://www.w3.org/TR/2001/REC-SVG-20010904/DTD/svg10.dtd">
<svg version="1.0" xmlns="http://www.w3.org/2000/svg"
 width="420.000000pt" height="420.000000pt" viewBox="0 0 420.000000 420.000000"
 preserveAspectRatio="xMidYMid meet">
<metadata>
Created by potrace 1.14, written by Peter Selinger 2001-2017
</metadata>
<g transform="translate(0.000000,420.000000) scale(0.100000,-0.100000)"
fill="#000000" stroke="none">
<path d="M2090 3605 c-236 -46 -420 -149 -529 -295 -14 -19 -32 -41 -38 -48
-7 -7 -13 -19 -13 -27 0 -7 -4 -15 -8 -17 -5 -1 -22 -32 -40 -68 l-32 -65 -97
-16 c-161 -27 -257 -74 -318 -153 -39 -51 -38 -99 4 -159 17 -26 35 -47 40
-47 4 0 16 -8 27 -19 12 -10 56 -39 100 -64 87 -49 105 -80 49 -85 -16 -1 -40
-5 -53 -8 -29 -6 -46 -48 -30 -73 8 -14 8 -34 -2 -82 -31 -146 -18 -254 40
-337 25 -35 29 -50 25 -83 -3 -22 -9 -48 -15 -58 -5 -10 -7 -29 -5 -42 2 -13
6 -53 10 -89 3 -36 9 -75 12 -88 3 -14 -1 -30 -12 -42 -15 -17 -17 -30 -10
-92 4 -40 8 -84 9 -98 2 -20 -13 -100 -28 -145 -10 -31 -23 -51 -55 -85 -53
-54 -73 -80 -120 -148 -74 -110 -85 -252 -30 -422 65 -200 185 -289 387 -286
45 1 82 -3 82 -7 0 -5 -16 -25 -35 -44 -19 -19 -35 -37 -35 -40 0 -5 73 2 124
12 43 9 102 42 124 69 10 14 39 33 63 42 139 55 192 134 142 212 -13 22 -13
26 4 45 50 58 60 129 24 177 l-20 28 29 22 c75 58 53 167 -38 185 l-37 8 40
12 c22 6 43 10 47 8 29 -15 252 -20 348 -9 84 11 265 53 302 71 18 8 49 29 68
46 23 21 36 26 39 18 2 -7 15 -25 28 -38 28 -31 27 -29 6 -71 -33 -67 -20
-165 32 -240 13 -19 22 -44 20 -55 -2 -11 -4 -20 -5 -20 -2 0 -9 -36 -11 -60
-4 -38 50 -125 78 -125 6 0 16 -6 22 -14 10 -12 6 -21 -18 -47 -17 -18 -31
-38 -31 -45 0 -8 -5 -14 -12 -14 -6 0 -8 -3 -5 -7 4 -3 2 -12 -4 -19 -16 -20
-22 -97 -9 -145 6 -24 27 -78 45 -119 19 -41 42 -102 52 -134 10 -33 23 -61
29 -63 5 -2 16 12 24 32 8 19 16 35 20 35 3 0 14 16 24 35 11 19 23 35 28 35
4 0 8 6 8 14 0 7 7 19 15 26 13 11 57 93 60 110 0 3 3 10 6 15 3 6 7 33 8 62
3 59 -21 122 -62 166 l-27 28 35 33 c51 50 63 94 40 149 -4 10 -3 17 4 17 5 0
21 23 35 52 31 64 30 141 -2 186 l-21 29 20 22 c11 11 16 21 12 21 -4 0 -2 4
5 8 7 5 14 17 17 28 2 10 8 35 13 54 10 38 8 59 -9 132 -10 42 -9 49 10 69 12
13 21 26 21 30 0 4 6 14 13 21 34 34 54 102 55 186 1 53 7 92 15 101 47 58 54
103 44 276 -1 24 2 40 9 40 22 0 66 41 80 74 16 37 26 212 27 471 0 187 -12
285 -48 395 -34 103 -142 267 -220 336 -16 15 -46 42 -66 60 -42 39 -80 68
-118 89 -14 8 -28 18 -31 21 -5 6 -89 51 -100 54 -3 1 -18 7 -35 14 -229 95
-444 119 -665 76z m-775 -1193 c-4 -24 -9 -54 -12 -65 -3 -12 -5 -30 -5 -39 1
-10 -2 -18 -6 -18 -4 0 -7 -15 -8 -33 -1 -50 -14 -93 -23 -78 -5 8 -8 2 -8
-16 -1 -39 -9 -82 -17 -91 -10 -10 -27 20 -22 40 2 10 -1 16 -8 15 -6 -1 -11
5 -11 13 0 8 -4 20 -8 27 -13 21 -9 117 8 173 9 30 16 61 17 68 1 7 7 11 13 8
6 -2 11 5 11 18 -1 14 4 20 14 18 8 -2 12 0 7 4 -4 4 1 16 10 26 17 19 18 19
36 -3 15 -18 17 -32 12 -67z"/>
<path d="M1290 2441 c0 -6 4 -13 10 -16 6 -3 7 1 4 9 -7 18 -14 21 -14 7z"/>
</g>
</svg>
